# xmcd
#
# Track frame offsets:
# 150
# 11774
# 23576
# 37490
# 53374
# 69852
# 81457
# 96739
# 112093
# 126870
# 143636
# 163378
# 179639
# 198660
#
# Disc length: 2880 seconds
#
# Revision: 1
# Processed by: cddbd v1.5PL3 Copyright (c) Steve Scherf et al.
# Submitted via: Easy CD Ripper 1.45
#
DISCID=d10b3e0e
DTITLE=Hackensaw Boys - Keep It Simple
DYEAR=2004
DGENRE=Country
TTITLE0=Dance Around
TTITLE1=Hackensaw Boys - Ruby Pearl
TTITLE2=Hackensaw Boys - Jonah
TTITLE3=Hackensaw Boys - Miner
TTITLE4=Hackensaw Boys - Smilin'must mean something
TTITLE5=Hackensaw Boys - Blue run
TTITLE6=Hackensaw Boys - Nashville
TTITLE7=Hackensaw Boys - Keep it simple
TTITLE8=Hackensaw Boys - Grandma
TTITLE9=Hackensaw Boys - When you said i love
TTITLE10=Hackensaw Boys - Gypsy
TTITLE11=Hackensaw Boys - Keep me Lord
TTITLE12=Hackensaw Boys - Leni
TTITLE13=Hackensaw Boys - Wherever you are
EXTD=
EXTT0=
EXTT1=
EXTT2=
EXTT3=
EXTT4=
EXTT5=
EXTT6=
EXTT7=
EXTT8=
EXTT9=
EXTT10=
EXTT11=
EXTT12=
EXTT13=
PLAYORDER=
